<svg width="298" height="55" viewBox="0 0 298 55" fill="none" xmlns="http://www.w3.org/2000/svg">
<path d="M29.2915 5.408C29.2915 6.21866 29.0142 6.92266 28.4595 7.52C27.9048 8.07466 27.2008 8.352 26.3475 8.352H19.6275C19.0728 8.352 18.7955 8.62933 18.7955 9.184V41.056C18.7955 41.8667 18.4968 42.5707 17.8995 43.168C17.3448 43.7227 16.6622 44 15.8515 44H14.1875C13.3768 44 12.6728 43.7227 12.0755 43.168C11.5208 42.5707 11.2435 41.8667 11.2435 41.056V9.184C11.2435 8.62933 10.9662 8.352 10.4115 8.352H3.6275C2.81683 8.352 2.11283 8.07466 1.5155 7.52C0.960833 6.92266 0.6835 6.21866 0.6835 5.408V3.68C0.6835 2.82666 0.960833 2.12266 1.5155 1.568C2.11283 1.01333 2.81683 0.735996 3.6275 0.735996H26.3475C27.2008 0.735996 27.9048 1.01333 28.4595 1.568C29.0142 2.12266 29.2915 2.82666 29.2915 3.68V5.408ZM52.478 36.832C52.478 38.8373 51.774 40.544 50.366 41.952C49.0007 43.3173 47.3367 44 45.374 44H36.478C34.5153 44 32.83 43.3173 31.422 41.952C30.014 40.544 29.31 38.8373 29.31 36.832V29.856C29.31 28.5333 29.63 27.36 30.27 26.336C30.9527 25.2693 31.8273 24.416 32.894 23.776C33.9607 23.136 35.1553 22.816 36.478 22.816H44.03C44.2433 22.816 44.4353 22.7307 44.606 22.56C44.8193 22.3893 44.926 22.176 44.926 21.92V19.36C44.926 19.104 44.8193 18.8907 44.606 18.72C44.4353 18.5493 44.2433 18.464 44.03 18.464H36.478C35.6673 18.464 34.9633 18.1867 34.366 17.632C33.8113 17.0773 33.534 16.3947 33.534 15.584V13.856C33.534 13.0027 33.8113 12.2987 34.366 11.744C34.9633 11.1467 35.6673 10.848 36.478 10.848H45.374C46.6967 10.848 47.8913 11.168 48.958 11.808C50.0247 12.448 50.878 13.3227 51.518 14.432C52.158 15.4987 52.478 16.6933 52.478 18.016V36.832ZM44.926 35.616V31.2C44.926 30.9867 44.8193 30.7947 44.606 30.624C44.4353 30.4533 44.2433 30.368 44.03 30.368H37.822C37.6087 30.368 37.3953 30.4533 37.182 30.624C37.0113 30.7947 36.926 30.9867 36.926 31.2V35.616C36.926 35.8293 37.0113 36.0213 37.182 36.192C37.3953 36.3627 37.6087 36.448 37.822 36.448H44.03C44.2433 36.448 44.4353 36.3627 44.606 36.192C44.8193 36.0213 44.926 35.8293 44.926 35.616ZM88.597 14.432L82.773 41.696C82.645 42.3787 82.3037 42.9333 81.749 43.36C81.237 43.7867 80.6397 44 79.957 44H78.165C77.4823 44 76.8637 43.7867 76.309 43.36C75.797 42.9333 75.4557 42.3787 75.285 41.696L73.493 33.504C73.4503 33.2907 73.3437 33.184 73.173 33.184C73.0023 33.184 72.8957 33.2907 72.853 33.504L71.125 41.696C70.9543 42.3787 70.613 42.9333 70.101 43.36C69.589 43.7867 68.9703 44 68.245 44H66.453C65.7703 44 65.1517 43.7867 64.597 43.36C64.085 42.9333 63.7437 42.3787 63.573 41.696L57.749 14.432C57.5357 13.4933 57.7063 12.6827 58.261 12C58.9437 11.232 59.7117 10.848 60.565 10.848H62.421C63.1037 10.848 63.701 11.0613 64.213 11.488C64.7677 11.9147 65.1303 12.4907 65.301 13.216L67.029 21.408C67.0717 21.5787 67.157 21.664 67.285 21.664C67.4557 21.664 67.5623 21.5787 67.605 21.408L69.461 13.216C69.589 12.4907 69.909 11.9147 70.421 11.488C70.9757 11.0613 71.5943 10.848 72.277 10.848H74.133C74.773 10.848 75.3703 11.0613 75.925 11.488C76.4797 11.9147 76.7997 12.4907 76.885 13.216L78.741 21.472C78.7837 21.6427 78.869 21.728 78.997 21.728C79.1677 21.728 79.2743 21.6427 79.317 21.472L81.109 13.216C81.2797 12.4907 81.621 11.9147 82.133 11.488C82.6877 11.0613 83.3063 10.848 83.989 10.848H85.845C86.6983 10.848 87.445 11.232 88.085 12C88.6823 12.768 88.853 13.5787 88.597 14.432ZM117.041 41.056C117.041 41.8667 116.763 42.5707 116.209 43.168C115.654 43.7227 114.971 44 114.161 44H112.369C111.558 44 110.875 43.7227 110.321 43.168C109.766 42.5707 109.489 41.8667 109.489 41.056V19.36C109.489 19.104 109.382 18.8907 109.169 18.72C108.998 18.5493 108.806 18.464 108.593 18.464H102.385C102.171 18.464 101.958 18.5493 101.745 18.72C101.574 18.8907 101.489 19.104 101.489 19.36V41.056C101.489 41.8667 101.211 42.5707 100.657 43.168C100.102 43.7227 99.4192 44 98.6085 44H96.8165C96.0058 44 95.3018 43.7227 94.7045 43.168C94.1498 42.5707 93.8725 41.8667 93.8725 41.056V18.016C93.8725 16.6933 94.1925 15.4987 94.8325 14.432C95.5152 13.3227 96.3898 12.448 97.4565 11.808C98.5232 11.168 99.7178 10.848 101.041 10.848H109.937C111.259 10.848 112.454 11.168 113.521 11.808C114.587 12.448 115.441 13.3227 116.081 14.432C116.721 15.4987 117.041 16.6933 117.041 18.016V41.056ZM145.416 47.072C145.416 48.352 145.096 49.5253 144.456 50.592C143.816 51.7013 142.962 52.576 141.896 53.216C140.829 53.8987 139.634 54.24 138.312 54.24H129.416C128.605 54.24 127.901 53.9413 127.304 53.344C126.749 52.7893 126.472 52.1067 126.472 51.296V49.504C126.472 48.6933 126.749 48.0107 127.304 47.456C127.901 46.9013 128.605 46.624 129.416 46.624H136.968C137.181 46.624 137.373 46.5387 137.544 46.368C137.757 46.1973 137.864 46.0053 137.864 45.792V44.832C137.864 44.6187 137.757 44.4267 137.544 44.256C137.373 44.0853 137.181 44 136.968 44H129.416C127.453 44 125.768 43.3173 124.36 41.952C122.952 40.544 122.248 38.8373 122.248 36.832V18.016C122.248 16.6933 122.568 15.4987 123.208 14.432C123.89 13.3227 124.765 12.448 125.832 11.808C126.898 11.168 128.093 10.848 129.416 10.848H138.312C139.634 10.848 140.829 11.168 141.896 11.808C142.962 12.448 143.816 13.3227 144.456 14.432C145.096 15.4987 145.416 16.6933 145.416 18.016V47.072ZM137.864 35.616V19.36C137.864 19.104 137.757 18.8907 137.544 18.72C137.373 18.5493 137.181 18.464 136.968 18.464H130.76C130.546 18.464 130.333 18.5493 130.12 18.72C129.949 18.8907 129.864 19.104 129.864 19.36V35.616C129.864 35.8293 129.949 36.0213 130.12 36.192C130.333 36.3627 130.546 36.448 130.76 36.448H136.968C137.181 36.448 137.373 36.3627 137.544 36.192C137.757 36.0213 137.864 35.8293 137.864 35.616ZM179.167 18.592C179.167 20.128 178.783 21.536 178.015 22.816C177.289 24.096 176.287 25.12 175.007 25.888C173.727 26.656 172.297 27.04 170.719 27.04H158.943C158.431 27.04 158.175 27.3173 158.175 27.872V41.056C158.175 41.8667 157.876 42.5707 157.279 43.168C156.724 43.7227 156.041 44 155.231 44H153.503C152.692 44 151.988 43.7227 151.391 43.168C150.836 42.5707 150.559 41.8667 150.559 41.056V3.68C150.559 2.82666 150.836 2.12266 151.391 1.568C151.988 1.01333 152.692 0.735996 153.503 0.735996H170.719C172.297 0.735996 173.727 1.12 175.007 1.888C176.287 2.656 177.289 3.68 178.015 4.96C178.783 6.24 179.167 7.66933 179.167 9.248V18.592ZM171.615 18.592V9.248C171.615 8.65066 171.316 8.352 170.719 8.352H158.943C158.431 8.352 158.175 8.62933 158.175 9.184V18.592C158.175 19.1467 158.431 19.424 158.943 19.424H170.719C171.316 19.424 171.615 19.1467 171.615 18.592ZM207.478 41.056C207.478 41.8667 207.201 42.5707 206.646 43.168C206.091 43.7227 205.409 44 204.598 44H202.806C201.995 44 201.313 43.7227 200.758 43.168C200.203 42.5707 199.926 41.8667 199.926 41.056V19.36C199.926 19.104 199.819 18.8907 199.606 18.72C199.435 18.5493 199.243 18.464 199.03 18.464H192.822C192.609 18.464 192.395 18.5493 192.182 18.72C192.011 18.8907 191.926 19.104 191.926 19.36V41.056C191.926 41.8667 191.649 42.5707 191.094 43.168C190.539 43.7227 189.857 44 189.046 44H187.254C186.443 44 185.739 43.7227 185.142 43.168C184.587 42.5707 184.31 41.8667 184.31 41.056V3.68C184.31 2.82666 184.587 2.12266 185.142 1.568C185.739 1.01333 186.443 0.735996 187.254 0.735996H189.046C189.857 0.735996 190.539 1.01333 191.094 1.568C191.649 2.12266 191.926 2.82666 191.926 3.68V10.08C191.926 10.2933 192.011 10.4853 192.182 10.656C192.395 10.784 192.609 10.848 192.822 10.848H200.374C201.697 10.848 202.891 11.168 203.958 11.808C205.025 12.448 205.878 13.3227 206.518 14.432C207.158 15.4987 207.478 16.6933 207.478 18.016V41.056ZM235.853 36.832C235.853 38.8373 235.149 40.544 233.741 41.952C232.376 43.3173 230.712 44 228.749 44H219.853C217.89 44 216.205 43.3173 214.797 41.952C213.389 40.544 212.685 38.8373 212.685 36.832V29.856C212.685 28.5333 213.005 27.36 213.645 26.336C214.328 25.2693 215.202 24.416 216.269 23.776C217.336 23.136 218.53 22.816 219.853 22.816H227.405C227.618 22.816 227.81 22.7307 227.981 22.56C228.194 22.3893 228.301 22.176 228.301 21.92V19.36C228.301 19.104 228.194 18.8907 227.981 18.72C227.81 18.5493 227.618 18.464 227.405 18.464H219.853C219.042 18.464 218.338 18.1867 217.741 17.632C217.186 17.0773 216.909 16.3947 216.909 15.584V13.856C216.909 13.0027 217.186 12.2987 217.741 11.744C218.338 11.1467 219.042 10.848 219.853 10.848H228.749C230.072 10.848 231.266 11.168 232.333 11.808C233.4 12.448 234.253 13.3227 234.893 14.432C235.533 15.4987 235.853 16.6933 235.853 18.016V36.832ZM228.301 35.616V31.2C228.301 30.9867 228.194 30.7947 227.981 30.624C227.81 30.4533 227.618 30.368 227.405 30.368H221.197C220.984 30.368 220.77 30.4533 220.557 30.624C220.386 30.7947 220.301 30.9867 220.301 31.2V35.616C220.301 35.8293 220.386 36.0213 220.557 36.192C220.77 36.3627 220.984 36.448 221.197 36.448H227.405C227.618 36.448 227.81 36.3627 227.981 36.192C228.194 36.0213 228.301 35.8293 228.301 35.616ZM263.49 41.056C263.49 41.8667 263.191 42.5707 262.594 43.168C262.039 43.7227 261.357 44 260.546 44H258.818C258.007 44 257.303 43.7227 256.706 43.168C256.151 42.5707 255.874 41.8667 255.874 41.056V3.68C255.874 2.82666 256.151 2.12266 256.706 1.568C257.303 1.01333 258.007 0.735996 258.818 0.735996H260.546C261.357 0.735996 262.039 1.01333 262.594 1.568C263.191 2.12266 263.49 2.82666 263.49 3.68V41.056ZM297.229 5.408C297.229 6.21866 296.952 6.92266 296.397 7.52C295.842 8.07466 295.138 8.352 294.285 8.352H287.565C287.01 8.352 286.733 8.62933 286.733 9.184V41.056C286.733 41.8667 286.434 42.5707 285.837 43.168C285.282 43.7227 284.6 44 283.789 44H282.125C281.314 44 280.61 43.7227 280.013 43.168C279.458 42.5707 279.181 41.8667 279.181 41.056V9.184C279.181 8.62933 278.904 8.352 278.349 8.352H271.565C270.754 8.352 270.05 8.07466 269.453 7.52C268.898 6.92266 268.621 6.21866 268.621 5.408V3.68C268.621 2.82666 268.898 2.12266 269.453 1.568C270.05 1.01333 270.754 0.735996 271.565 0.735996H294.285C295.138 0.735996 295.842 1.01333 296.397 1.568C296.952 2.12266 297.229 2.82666 297.229 3.68V5.408Z" fill="#00A2FF"/>
</svg>
